<?xml version="1.0" encoding="utf-8"?>
<!-- Generator: Adobe Illustrator 21.0.2, SVG Export Plug-In . SVG Version: 6.00 Build 0)  -->
<svg version="1.1" id="Capa_1" xmlns="http://www.w3.org/2000/svg" xmlns:xlink="http://www.w3.org/1999/xlink" x="0px" y="0px"
	 viewBox="0 0 225.6 288.4" style="enable-background:new 0 0 225.6 288.4;" xml:space="preserve">
<style type="text/css">
	.st0{enable-background:new    ;}
	.st1{fill:#CA8FCD;}
	.st2{fill:#FFFFFF;}
</style>
<g class="st0">
	<path class="st1" d="M62.3,271.2v17H61V280H50.3v8.1h-1.2v-17h1.2v7.8H61v-7.8H62.3z"/>
	<path class="st1" d="M72.5,272.9v-2.2h1.2v2.2H72.5z M72.5,288.2v-12.4h1.2v12.4H72.5z"/>
	<path class="st1" d="M81.4,288.4c-1,0-1.9-0.2-2.8-0.5c-0.9-0.3-1.6-0.8-2.3-1.4l0.6-0.8c0.7,0.6,1.4,1.1,2.1,1.3
		c0.7,0.3,1.5,0.4,2.4,0.4c1.1,0,2-0.2,2.6-0.7c0.7-0.5,1-1.1,1-1.9c0-0.4-0.1-0.7-0.3-1c-0.2-0.3-0.4-0.5-0.8-0.7
		c-0.3-0.2-0.7-0.3-1.2-0.5c-0.5-0.1-1.1-0.3-1.7-0.5c-0.7-0.2-1.3-0.3-1.8-0.5c-0.5-0.2-0.9-0.4-1.3-0.6c-0.3-0.2-0.6-0.5-0.8-0.8
		c-0.2-0.3-0.3-0.7-0.3-1.2c0-0.6,0.1-1.2,0.4-1.6c0.2-0.5,0.6-0.8,1-1.1c0.4-0.3,0.9-0.5,1.5-0.7c0.6-0.2,1.1-0.2,1.8-0.2
		c1,0,1.8,0.2,2.6,0.5c0.7,0.3,1.3,0.7,1.7,1.3l-0.7,0.6c-0.4-0.5-1-0.8-1.6-1.1c-0.7-0.2-1.4-0.4-2.1-0.4c-0.5,0-0.9,0-1.3,0.1
		c-0.4,0.1-0.8,0.2-1.1,0.5c-0.3,0.2-0.5,0.5-0.7,0.8c-0.2,0.3-0.3,0.7-0.3,1.2c0,0.4,0.1,0.7,0.2,0.9c0.1,0.2,0.3,0.4,0.6,0.6
		c0.3,0.2,0.6,0.3,1,0.4c0.4,0.1,0.9,0.3,1.5,0.4c0.8,0.2,1.5,0.4,2.1,0.5c0.6,0.2,1.1,0.4,1.5,0.6c0.4,0.3,0.7,0.6,0.9,0.9
		c0.2,0.4,0.3,0.8,0.3,1.3c0,1.1-0.4,2-1.3,2.7C84,288.1,82.8,288.4,81.4,288.4z"/>
	<path class="st1" d="M95.6,288.2v-11.5h-1.7v-1h1.7v-0.4c0-1.5,0.3-2.7,0.9-3.6c0.6-0.9,1.5-1.3,2.6-1.3c0.5,0,0.9,0.1,1.4,0.2
		c0.4,0.1,0.8,0.3,1.1,0.6l-0.4,0.9c-0.2-0.2-0.5-0.3-0.8-0.4c-0.3-0.1-0.7-0.2-1-0.2c-0.8,0-1.4,0.3-1.9,1
		c-0.4,0.6-0.7,1.6-0.7,2.8v0.4h3.5v1h-3.5v11.5H95.6z"/>
	<path class="st1" d="M107.3,288.4c-0.9,0-1.7-0.2-2.4-0.5c-0.7-0.3-1.4-0.8-1.9-1.4c-0.5-0.6-1-1.3-1.3-2.1
		c-0.3-0.8-0.5-1.6-0.5-2.5c0-0.9,0.2-1.7,0.5-2.5c0.3-0.8,0.7-1.5,1.3-2.1c0.5-0.6,1.2-1.1,1.9-1.4c0.7-0.3,1.5-0.5,2.4-0.5
		c0.9,0,1.7,0.2,2.4,0.5c0.7,0.3,1.4,0.8,1.9,1.4c0.6,0.6,1,1.3,1.3,2.1c0.3,0.8,0.5,1.6,0.5,2.5c0,0.9-0.2,1.7-0.5,2.5
		c-0.3,0.8-0.7,1.5-1.3,2.1c-0.5,0.6-1.2,1.1-1.9,1.4C108.9,288.2,108.1,288.4,107.3,288.4z M102.4,282c0,0.7,0.1,1.4,0.4,2.1
		c0.3,0.6,0.6,1.2,1,1.7c0.4,0.5,1,0.9,1.5,1.1c0.6,0.3,1.2,0.4,1.9,0.4c0.7,0,1.3-0.1,1.9-0.4c0.6-0.3,1.1-0.7,1.6-1.2
		c0.4-0.5,0.8-1.1,1.1-1.7c0.3-0.6,0.4-1.3,0.4-2.1c0-0.7-0.1-1.4-0.4-2.1c-0.3-0.6-0.6-1.2-1.1-1.7c-0.4-0.5-1-0.9-1.5-1.2
		c-0.6-0.3-1.2-0.4-1.9-0.4c-0.7,0-1.3,0.1-1.9,0.4c-0.6,0.3-1.1,0.7-1.5,1.2c-0.4,0.5-0.8,1.1-1.1,1.7
		C102.5,280.6,102.4,281.3,102.4,282z"/>
	<path class="st1" d="M122.1,276.8c-1.1,0-2.1,0.4-2.9,1c-0.8,0.6-1.4,1.5-1.8,2.6v7.8h-1.2v-12.4h1.1v3.1c0.4-0.9,1-1.6,1.7-2.1
		c0.7-0.5,1.5-0.9,2.3-0.9c0.2,0,0.3,0,0.4,0c0.1,0,0.2,0,0.3,0V276.8z"/>
	<path class="st1" d="M143.5,271.2v17h-1.2V280h-10.7v8.1h-1.2v-17h1.2v7.8h10.7v-7.8H143.5z"/>
	<path class="st1" d="M151.4,288.4c-2.6,0-4-1.8-4-5.5v-7.2h1.2v7c0,3.1,1,4.6,3.1,4.6c0.5,0,1-0.1,1.5-0.3c0.5-0.2,1-0.4,1.4-0.8
		c0.4-0.3,0.8-0.7,1.1-1.2c0.3-0.5,0.6-1,0.8-1.5v-7.8h1.2v10.8c0,0.4,0.2,0.6,0.5,0.6v1.1c-0.1,0-0.2,0-0.2,0c-0.1,0-0.1,0-0.1,0
		c-0.3,0-0.6-0.1-0.8-0.3c-0.2-0.2-0.4-0.5-0.4-0.8v-1.9c-0.5,1-1.3,1.8-2.2,2.3C153.5,288.1,152.5,288.4,151.4,288.4z"/>
	<path class="st1" d="M179.9,288.2h-1.2v-6.9c0-1.6-0.2-2.7-0.7-3.5c-0.5-0.7-1.2-1.1-2.2-1.1c-0.5,0-1,0.1-1.5,0.3
		c-0.5,0.2-0.9,0.5-1.3,0.8c-0.4,0.3-0.7,0.7-1,1.2c-0.3,0.5-0.5,1-0.7,1.6v7.7h-1.2v-6.9c0-1.6-0.2-2.8-0.7-3.5
		c-0.5-0.7-1.2-1.1-2.2-1.1c-0.5,0-1,0.1-1.4,0.3c-0.5,0.2-0.9,0.4-1.3,0.8c-0.4,0.3-0.7,0.7-1,1.2c-0.3,0.5-0.5,1-0.7,1.6v7.7h-1.2
		v-12.4h1.1v3c0.5-1,1.2-1.8,2-2.3c0.8-0.6,1.7-0.8,2.8-0.8c1.1,0,1.9,0.3,2.6,0.9s1,1.4,1.2,2.4c1.2-2.2,2.8-3.4,4.9-3.4
		c1.4,0,2.3,0.5,2.9,1.4c0.6,1,0.9,2.3,0.9,4.1V288.2z"/>
	<path class="st1" d="M186.5,288.4c-0.6,0-1.1-0.1-1.6-0.3c-0.5-0.2-0.9-0.5-1.3-0.8c-0.4-0.3-0.7-0.7-0.9-1.2
		c-0.2-0.5-0.3-1-0.3-1.5c0-0.5,0.1-1,0.4-1.5c0.3-0.4,0.6-0.8,1.1-1.2c0.5-0.3,1-0.6,1.6-0.8c0.6-0.2,1.3-0.3,2.1-0.3
		c0.7,0,1.3,0.1,2,0.2c0.7,0.1,1.3,0.3,1.8,0.5v-1.2c0-1.2-0.3-2.1-1-2.8c-0.7-0.7-1.6-1-2.7-1c-0.6,0-1.2,0.1-1.9,0.4
		c-0.7,0.3-1.4,0.6-2.1,1.1l-0.5-0.8c1.6-1.1,3.1-1.6,4.5-1.6c1.5,0,2.7,0.4,3.5,1.3c0.9,0.9,1.3,2.1,1.3,3.6v6.1
		c0,0.4,0.2,0.6,0.5,0.6v1.1c-0.1,0-0.2,0-0.3,0c-0.1,0-0.2,0-0.2,0c-0.3,0-0.6-0.1-0.8-0.3c-0.2-0.2-0.3-0.5-0.3-0.8v-1
		c-0.6,0.7-1.3,1.3-2.2,1.7C188.5,288.2,187.6,288.4,186.5,288.4z M186.8,287.4c0.9,0,1.8-0.2,2.5-0.5c0.8-0.4,1.4-0.8,1.8-1.4
		c0.3-0.3,0.4-0.7,0.4-1v-2.2c-0.6-0.2-1.2-0.4-1.8-0.5c-0.6-0.1-1.3-0.2-1.9-0.2c-0.6,0-1.2,0.1-1.7,0.2c-0.5,0.1-0.9,0.3-1.3,0.6
		c-0.4,0.2-0.6,0.5-0.8,0.9c-0.2,0.3-0.3,0.7-0.3,1.1c0,0.4,0.1,0.8,0.2,1.2c0.2,0.4,0.4,0.7,0.7,0.9c0.3,0.3,0.6,0.5,1,0.6
		S186.3,287.4,186.8,287.4z"/>
	<path class="st1" d="M206.5,288.2h-1.2v-6.9c0-1.6-0.2-2.8-0.7-3.5c-0.5-0.7-1.2-1.1-2.2-1.1c-0.5,0-1,0.1-1.6,0.3
		c-0.5,0.2-1,0.5-1.4,0.8s-0.8,0.8-1.2,1.2c-0.3,0.5-0.6,1-0.7,1.5v7.7h-1.2v-12.4h1.1v3c0.3-0.5,0.6-0.9,0.9-1.3
		c0.4-0.4,0.8-0.7,1.3-1c0.5-0.3,1-0.5,1.5-0.6c0.5-0.2,1.1-0.2,1.6-0.2c1.4,0,2.3,0.5,2.9,1.4c0.6,0.9,0.8,2.3,0.8,4.1V288.2z"/>
</g>
<g class="st0">
	<path class="st2" d="M65.2,91.5v6.3H0V0h63.9v6.3H7v38.4h49.7v6.1H7v40.6H65.2z"/>
</g>
<g class="st0">
	<path class="st2" d="M103.7,131.4c-5.5,0-10.8-0.9-15.8-2.8c-5.1-1.8-9.5-4.6-13.2-8.3l3.4-4.7c3.9,3.5,7.9,6.1,12,7.7
		c4.1,1.7,8.7,2.5,13.6,2.5c6.2,0,11.3-1.3,15.1-3.9c3.8-2.6,5.7-6.3,5.7-11c0-2.2-0.5-4.1-1.4-5.6c-1-1.5-2.4-2.8-4.3-3.9
		c-1.9-1.1-4.3-2-7.2-2.8c-2.8-0.8-6.2-1.7-9.9-2.6c-4-0.9-7.6-1.8-10.5-2.8c-3-0.9-5.4-2-7.4-3.3c-1.9-1.3-3.4-2.8-4.3-4.7
		c-1-1.8-1.4-4.2-1.4-7c0-3.6,0.7-6.7,2.1-9.4c1.4-2.7,3.3-4.9,5.7-6.6c2.4-1.7,5.2-3.1,8.4-3.9c3.2-0.9,6.5-1.3,10.1-1.3
		c5.6,0,10.6,0.9,14.9,2.8c4.3,1.9,7.7,4.3,10.1,7.2l-3.9,3.7c-2.4-2.8-5.5-4.8-9.3-6.2c-3.8-1.4-7.9-2.1-12.2-2.1
		c-2.7,0-5.2,0.3-7.5,0.8c-2.3,0.6-4.4,1.4-6.1,2.6c-1.7,1.2-3.1,2.7-4.1,4.6c-1,1.9-1.5,4.1-1.5,6.7c0,2.1,0.3,3.8,1,5.1
		c0.7,1.3,1.8,2.4,3.3,3.3c1.5,0.9,3.5,1.7,5.9,2.4c2.4,0.7,5.2,1.4,8.5,2.3c4.5,1.1,8.5,2.2,12,3.2c3.5,1,6.4,2.3,8.7,3.7
		c2.3,1.5,4.1,3.2,5.4,5.2c1.2,2,1.9,4.6,1.9,7.7c0,6.4-2.5,11.6-7.5,15.4C118.7,129.5,112.1,131.4,103.7,131.4z"/>
</g>
<g class="st0">
	<path class="st2" d="M138.9,249.5c-5.1,0-9.7-1-14.1-3c-4.3-2-8.1-4.7-11.2-8.1c-3.2-3.4-5.6-7.4-7.4-11.9
		c-1.8-4.5-2.7-9.3-2.7-14.5c0-5.1,0.9-9.8,2.7-14.3c1.8-4.5,4.2-8.4,7.4-11.7c3.1-3.4,6.8-6,11.1-7.9c4.3-1.9,8.9-2.9,13.8-2.9
		c5.1,0,9.7,1,14.1,3c4.3,2,8,4.6,11.2,8c3.1,3.4,5.6,7.3,7.3,11.7c1.7,4.5,2.6,9.2,2.6,14.1c0,0.5,0,1,0,1.7c0,0.7,0,1.1-0.1,1.3
		h-62.8c0.3,4.1,1.2,8,2.9,11.5c1.7,3.5,3.7,6.6,6.3,9.2c2.5,2.6,5.4,4.6,8.7,6.1c3.3,1.5,6.8,2.2,10.6,2.2c2.5,0,4.9-0.3,7.3-1
		c2.4-0.7,4.6-1.6,6.7-2.8c2.1-1.2,3.9-2.6,5.5-4.3c1.6-1.7,2.9-3.6,3.8-5.6l6.1,1.7c-1,2.6-2.5,4.9-4.5,7.1c-2,2.2-4.3,4-6.9,5.6
		c-2.6,1.6-5.5,2.8-8.6,3.7C145.5,249,142.2,249.5,138.9,249.5z M167,209.5c-0.3-4.2-1.2-8.1-2.8-11.6c-1.6-3.5-3.7-6.5-6.2-9
		c-2.5-2.5-5.4-4.5-8.7-5.9c-3.3-1.4-6.8-2.1-10.6-2.1c-3.8,0-7.3,0.7-10.6,2.1c-3.3,1.4-6.2,3.4-8.7,5.9c-2.5,2.5-4.5,5.6-6.1,9.1
		c-1.5,3.5-2.4,7.4-2.7,11.5H167z"/>
</g>
<g class="st0">
	<path class="st2" d="M225.6,181.2c-6.4,0.2-12.1,2.1-16.9,5.7c-4.8,3.6-8.2,8.6-10.1,14.9v44.8h-6.9V175h6.6v17.6
		c2.5-5.1,5.8-9.2,9.9-12.3c4.1-3.2,8.5-5,13.2-5.4c0.9-0.1,1.7-0.1,2.5-0.1c0.7,0,1.3,0,1.8,0V181.2z"/>
</g>
<g class="st0">
	<path class="st2" d="M187.7,144.3c-0.4,0.2-1,0.5-1.9,1c-0.9,0.5-2,1-3.3,1.4c-1.3,0.5-2.8,0.9-4.5,1.2c-1.7,0.4-3.4,0.6-5.4,0.6
		c-1.9,0-3.7-0.3-5.4-0.8c-1.7-0.6-3.2-1.4-4.5-2.5c-1.3-1.1-2.3-2.4-3-4c-0.7-1.6-1.1-3.4-1.1-5.5v-54h-10.1v-5.6h10.1V51.6h6.9
		v24.5h16.7v5.6h-16.7v52.4c0,2.7,0.9,4.7,2.8,6c1.8,1.3,3.9,2,6.2,2c2.8,0,5.3-0.5,7.4-1.4c2.1-1,3.3-1.6,3.8-1.9L187.7,144.3z"/>
</g>
<g class="st0">
	<path class="st1" d="M89.6,222.3h-6.9v-40c0-17.7-5.9-26.6-17.8-26.6c-2.9,0-5.8,0.6-8.6,1.7c-2.8,1.1-5.4,2.7-7.9,4.7
		c-2.4,2-4.6,4.4-6.4,7.1c-1.8,2.7-3.2,5.6-4.1,8.7v44.4H31V121.7h6.9v46c2.9-5.6,7-10.1,12.2-13.4c5.2-3.3,10.8-5,16.7-5
		c3.9,0,7.3,0.7,10.2,2.2c2.8,1.5,5.2,3.6,7.1,6.3c1.9,2.8,3.3,6.1,4.1,10c0.9,3.9,1.3,8.3,1.3,13.2V222.3z"/>
</g>
</svg>
