<svg id="Capa_1" data-name="Capa 1" xmlns="http://www.w3.org/2000/svg" viewBox="0 0 149.63 114.28"><defs><style>.cls-1{fill:#3c3c3b;}</style></defs><title>logo-desktop</title><path class="cls-1" d="M61.18,47c.27-.68.7-1,1.28-.87s.73.63.46,1.59a8.39,8.39,0,0,1-1,2.61q-.72,1.18-1.95,2.92a10.23,10.23,0,0,1-4,3.18,7.62,7.62,0,0,1-4.51.77,4.1,4.1,0,0,1-3.07-2.61q-1-2.25.2-6.86A6.49,6.49,0,0,0,49,44.83q-.21-.72-.87-.41a6,6,0,0,0-1.64,1.33,17.84,17.84,0,0,0-1.84,2.3,15.13,15.13,0,0,0-1.44,2.61,5.91,5.91,0,0,0-.56,2.15,1.86,1.86,0,0,1-.56,1.74,2.22,2.22,0,0,1-1.54.46,3.54,3.54,0,0,1-1.59-.46,1.19,1.19,0,0,1-.72-1,11.46,11.46,0,0,1,.2-3q.31-1.64.66-3.07t.51-2.41c.1-.65,0-1-.26-1.18s-1,.1-1.84.72A15.87,15.87,0,0,0,35,47.14a20.38,20.38,0,0,0-2.41,3.64,15.17,15.17,0,0,0-1.48,4.1,1.63,1.63,0,0,1-1.49,1.44,2,2,0,0,1-2.1-.92A5.08,5.08,0,0,1,27,52.83a39.46,39.46,0,0,1,.15-4.41A29.6,29.6,0,0,1,27.88,44,6.23,6.23,0,0,1,29,41.25a4.35,4.35,0,0,1,2.51-.87,4.11,4.11,0,0,1,2.51.36,1.27,1.27,0,0,1,.46,1.49q-.26,1-.77,3.12a19.46,19.46,0,0,1,2.41-3,28.06,28.06,0,0,1,3.07-2.77,16.54,16.54,0,0,1,3.12-1.95A5.35,5.35,0,0,1,45,37a1.39,1.39,0,0,1,1,1,4.73,4.73,0,0,1,.21,1.74,9.33,9.33,0,0,1-.36,2,8.21,8.21,0,0,1-.72,1.79,14.57,14.57,0,0,1,4.51-3.23q2.56-1.18,4.2-.36a2.83,2.83,0,0,1,1.28,2.46A12.33,12.33,0,0,1,54.42,47a12.85,12.85,0,0,0-.72,4.76q.2,1.59.92,2a1.82,1.82,0,0,0,1.79-.15,6.5,6.5,0,0,0,2-1.69,18.46,18.46,0,0,0,1.69-2.46A10.53,10.53,0,0,0,61.18,47Z"/><path class="cls-1" d="M60.16,41.25a2.22,2.22,0,0,1-.41-1.84,4,4,0,0,1,.92-1.84,4.14,4.14,0,0,1,1.69-1.18,2.45,2.45,0,0,1,1.9.05,5.28,5.28,0,0,1,2.15,2.92A34.54,34.54,0,0,1,68,45.14a26.69,26.69,0,0,1,6.1-5.43A10.49,10.49,0,0,1,80.44,38a4.64,4.64,0,0,1,3.69,1.69,4.87,4.87,0,0,1,.72,3.59,12,12,0,0,1-1.74,4.46,21.59,21.59,0,0,1-3.58,4.4,20.85,20.85,0,0,1-4.82,3.43A12.66,12.66,0,0,1,69.28,57q.1,5.13-.26,10.45a64.55,64.55,0,0,1-1.43,10,39.31,39.31,0,0,1-2.87,8.4,12.71,12.71,0,0,1-4.35,5.33q-3.59,2.25-5.53,1.54T52.27,89.3a21.55,21.55,0,0,1-.05-7.17,63.54,63.54,0,0,1,2-9.53A95,95,0,0,1,58,62.15a77,77,0,0,1,5.12-10q-.61-3.89-1.38-6.81A13.06,13.06,0,0,0,60.16,41.25Zm-.1,47.33q1.85-.92,2.82-4.2a40.59,40.59,0,0,0,1.38-7.79,75.91,75.91,0,0,0,.2-9.73q-.21-5.23-.72-10a96.3,96.3,0,0,0-3.69,11.37A81.07,81.07,0,0,0,58,78.95a29.39,29.39,0,0,0-.1,7.69Q58.31,89.5,60.05,88.58Zm16.5-45.7a6.3,6.3,0,0,0-4.2,1.18A14.5,14.5,0,0,0,68.56,48q.41,2.87.62,6.46a8.07,8.07,0,0,0,5-1.74,14,14,0,0,0,3.59-3.84,6.56,6.56,0,0,0,1.13-3.94Q78.7,43.09,76.55,42.89Z"/><path class="cls-1" d="M131.56,73.11c-.16,3.41-10.23,2.41-10.23,2.41q-6.77-.77-13.53-1.69.62,3.38,1,6.56a35.67,35.67,0,0,1,.2,5.94,16.88,16.88,0,0,1-1,5,7.48,7.48,0,0,1-2.66,3.54,10.55,10.55,0,0,1-7.74,1.84A32.68,32.68,0,0,1,88.08,94a56.16,56.16,0,0,1-9.78-5.63,72.3,72.3,0,0,1-8.4-6.92,36.26,36.26,0,0,1-5.48-6.51c-1.26-2-1.59-3.5-1-4.46a5.18,5.18,0,0,1,3.38-2.15,26.31,26.31,0,0,1,6.92-.46q4.46.15,11,1T100.42,71q-.61-4.3-1-8.66a36.34,36.34,0,0,1,.26-8.45,9.08,9.08,0,0,1-5,2.41A6,6,0,0,1,90,55a6.55,6.55,0,0,1-2.51-5.12,9.43,9.43,0,0,1,2.1-6.25A9.57,9.57,0,0,1,95,39.86a6.45,6.45,0,0,1,5.58,1,6.89,6.89,0,0,1,2,3,2.89,2.89,0,0,1,1-1.74q.31-.31,1.33-.15a7.79,7.79,0,0,1,2,.62,8.23,8.23,0,0,1,1.79,1.08,1.36,1.36,0,0,1,.67,1.23,1.7,1.7,0,0,1-.51,1.08l-1,.87a7.83,7.83,0,0,0-1.28,1.43,9,9,0,0,0-1.18,2.56,17.07,17.07,0,0,0-.51,4.35,39.23,39.23,0,0,0,.36,5.12q.36,2.72.92,5.68t1.18,5.95c7,.89,13.33,1.71,18.7.36C131.34,70.94,131.56,73.11,131.56,73.11ZM99.4,91.76a6.42,6.42,0,0,0,2-3.17,15.88,15.88,0,0,0,.56-4.41,43,43,0,0,0-.36-5.33q-.36-2.87-.87-5.94Q95,72.19,89.82,71.62t-9.22-.72a40.61,40.61,0,0,0-6.71.2q-2.66.36-3.38,1.49-.92,1.64.36,4.15a20.87,20.87,0,0,0,3.89,5.12,46.71,46.71,0,0,0,6.1,5.07,42.45,42.45,0,0,0,7,4,22.7,22.7,0,0,0,6.61,1.95A6.22,6.22,0,0,0,99.4,91.76ZM95.51,53.13a3,3,0,0,0,3.08-.92A8.75,8.75,0,0,0,101,48.42a5.5,5.5,0,0,0,.2-3.59,3.09,3.09,0,0,0-2-2.05,3.54,3.54,0,0,0-2.87.2,5.09,5.09,0,0,0-2.26,3.08,7.61,7.61,0,0,0-.46,4.46A3.21,3.21,0,0,0,95.51,53.13Z"/></svg>